<svg width="19" height="19" viewBox="0 0 19 19" fill="none" xmlns="http://www.w3.org/2000/svg">
<path d="M17.3478 7.57243V4.68112C17.3478 3.61657 16.4694 2.75359 15.3858 2.75359H3.61406C2.5305 2.75359 1.6521 3.61657 1.6521 4.68112V7.57243M17.3478 7.57243V16.2463C17.3478 17.3109 16.4694 18.1739 15.3858 18.1739H3.61406C2.5305 18.1739 1.6521 17.3109 1.6521 16.2463V7.57243M17.3478 7.57243H1.6521M5.57601 0.82605V4.68112M13.4238 0.82605V4.68112" stroke="white" stroke-linecap="round"/>
<path d="M5.19756 9.08691H3.68307C3.47396 9.08691 3.30444 9.25643 3.30444 9.46554V10.98C3.30444 11.1891 3.47396 11.3587 3.68307 11.3587H5.19756C5.40667 11.3587 5.57618 11.1891 5.57618 10.98V9.46554C5.57618 9.25643 5.40667 9.08691 5.19756 9.08691Z" fill="white"/>
<path d="M8.50176 9.08691H6.98727C6.77816 9.08691 6.60864 9.25643 6.60864 9.46554V10.98C6.60864 11.1891 6.77816 11.3587 6.98727 11.3587H8.50176C8.71087 11.3587 8.88038 11.1891 8.88038 10.98V9.46554C8.88038 9.25643 8.71087 9.08691 8.50176 9.08691Z" fill="white"/>
<path d="M11.8062 9.08691H10.2917C10.0826 9.08691 9.91309 9.25643 9.91309 9.46554V10.98C9.91309 11.1891 10.0826 11.3587 10.2917 11.3587H11.8062C12.0153 11.3587 12.1848 11.1891 12.1848 10.98V9.46554C12.1848 9.25643 12.0153 9.08691 11.8062 9.08691Z" fill="white"/>
<path d="M15.1104 9.08691H13.5959C13.3868 9.08691 13.2173 9.25643 13.2173 9.46554V10.98C13.2173 11.1891 13.3868 11.3587 13.5959 11.3587H15.1104C15.3195 11.3587 15.489 11.1891 15.489 10.98V9.46554C15.489 9.25643 15.3195 9.08691 15.1104 9.08691Z" fill="white"/>
</svg>
