<svg width="218" height="52" viewBox="0 0 218 52" fill="none" xmlns="http://www.w3.org/2000/svg">
    <g clip-path="url(#clip0_31_2)">
        <path
            d="M5.5 26C5.5 14.6782 14.6782 5.5 26 5.5C37.3218 5.5 46.5 14.6782 46.5 26C46.5 37.3218 37.3218 46.5 26 46.5C14.6782 46.5 5.5 37.3218 5.5 26Z"
            fill="#282551" stroke="#2E2F56" />
        <path
            d="M33.6 26.9L24.3 36.3C23.3 37.3 21.7 37.3 20.7 36.3C19.7 35.3 19.7 33.7 20.7 32.7L26.4 26.9C26.9 26.4 26.9 25.7 26.4 25.2L20.7 19.4C19.7 18.4 19.7 16.8 20.7 15.8C21.7 14.8 23.3 14.8 24.3 15.8L33.6 25.2C34.1 25.6 34.1 26.4 33.6 26.9Z"
            stroke="white" stroke-width="2" stroke-miterlimit="10" stroke-linecap="round"
            stroke-linejoin="round" />
    </g>
    <path
        d="M61.376 32V20.48H65.952C66.7733 20.48 67.472 20.6133 68.048 20.88C68.624 21.1467 69.0613 21.5307 69.36 22.032C69.6693 22.5333 69.824 23.136 69.824 23.84C69.824 24.544 69.6693 25.152 69.36 25.664C69.0613 26.1653 68.624 26.5547 68.048 26.832C67.472 27.1093 66.7733 27.248 65.952 27.248H62.336V26.096H65.904C66.7573 26.096 67.4027 25.904 67.84 25.52C68.288 25.1253 68.512 24.5653 68.512 23.84C68.512 23.1147 68.2933 22.5653 67.856 22.192C67.4187 21.8187 66.768 21.632 65.904 21.632H62.688V32H61.376ZM74.6396 32.16C73.861 32.16 73.173 31.9787 72.5756 31.616C71.9783 31.2427 71.509 30.736 71.1676 30.096C70.8263 29.456 70.6556 28.72 70.6556 27.888C70.6556 27.056 70.821 26.3253 71.1516 25.696C71.493 25.056 71.9676 24.56 72.5756 24.208C73.1836 23.856 73.8823 23.68 74.6716 23.68C75.429 23.68 76.085 23.8453 76.6396 24.176C77.205 24.5067 77.637 24.9707 77.9356 25.568C78.245 26.1653 78.3996 26.8693 78.3996 27.68C78.3996 27.7867 78.3943 27.888 78.3836 27.984C78.3836 28.08 78.373 28.1867 78.3516 28.304H71.6156V27.232H77.5676L77.1516 27.824C77.1516 26.8427 76.933 26.0907 76.4956 25.568C76.069 25.0347 75.461 24.768 74.6716 24.768C73.861 24.768 73.205 25.0507 72.7036 25.616C72.213 26.1707 71.9676 26.9227 71.9676 27.872C71.9676 28.8427 72.213 29.6213 72.7036 30.208C73.205 30.784 73.8716 31.072 74.7036 31.072C75.2263 31.072 75.685 30.96 76.0796 30.736C76.4743 30.5013 76.7623 30.1707 76.9436 29.744H78.1596C77.893 30.4907 77.445 31.0827 76.8156 31.52C76.197 31.9467 75.4716 32.16 74.6396 32.16ZM83.0949 32.16C82.0922 32.16 81.2922 31.9307 80.6949 31.472C80.0975 31.0027 79.7562 30.3413 79.6709 29.488H80.9029C80.9775 30.0107 81.2069 30.4107 81.5909 30.688C81.9749 30.9653 82.4869 31.104 83.1269 31.104C83.6922 31.104 84.1349 30.9973 84.4549 30.784C84.7749 30.5707 84.9349 30.2667 84.9349 29.872C84.9349 29.5947 84.8442 29.3547 84.6629 29.152C84.4815 28.9387 84.1189 28.7627 83.5749 28.624L82.2629 28.288C81.5162 28.096 80.9562 27.8027 80.5829 27.408C80.2095 27.0027 80.0229 26.5227 80.0229 25.968C80.0229 25.264 80.2842 24.7093 80.8069 24.304C81.3295 23.888 82.0389 23.68 82.9349 23.68C83.8202 23.68 84.5402 23.8933 85.0949 24.32C85.6495 24.7467 85.9642 25.3387 86.0389 26.096H84.8069C84.7322 25.6587 84.5295 25.3227 84.1989 25.088C83.8682 24.8533 83.4309 24.736 82.8869 24.736C82.3642 24.736 81.9589 24.8373 81.6709 25.04C81.3829 25.232 81.2389 25.5093 81.2389 25.872C81.2389 26.1493 81.3402 26.3893 81.5429 26.592C81.7562 26.7947 82.1082 26.9653 82.5989 27.104L83.8789 27.456C84.6362 27.6587 85.2069 27.968 85.5909 28.384C85.9749 28.8 86.1669 29.3013 86.1669 29.888C86.1669 30.6027 85.8949 31.1627 85.3509 31.568C84.8069 31.9627 84.0549 32.16 83.0949 32.16ZM94.0423 35.28V30.096L94.2823 30.144C94.0796 30.7627 93.7063 31.2533 93.1623 31.616C92.6289 31.9787 91.9889 32.16 91.2423 32.16C90.5063 32.16 89.8609 31.9893 89.3063 31.648C88.7623 31.296 88.3356 30.8053 88.0263 30.176C87.7276 29.536 87.5783 28.7947 87.5783 27.952C87.5783 27.0987 87.7329 26.352 88.0423 25.712C88.3516 25.072 88.7836 24.576 89.3383 24.224C89.8929 23.872 90.5436 23.696 91.2903 23.696C92.0583 23.696 92.7036 23.8827 93.2263 24.256C93.7489 24.6293 94.1063 25.1573 94.2983 25.84L94.1223 25.872V23.84H95.3223V35.28H94.0423ZM91.4823 31.04C92.3036 31.04 92.9436 30.7627 93.4023 30.208C93.8716 29.6427 94.1063 28.8747 94.1063 27.904C94.1063 26.9547 93.8716 26.2027 93.4023 25.648C92.9329 25.0933 92.2929 24.816 91.4823 24.816C90.6716 24.816 90.0369 25.0933 89.5783 25.648C89.1196 26.2027 88.8903 26.9707 88.8903 27.952C88.8903 28.912 89.1196 29.6693 89.5783 30.224C90.0369 30.768 90.6716 31.04 91.4823 31.04ZM100.545 32.16C100.012 32.16 99.5374 32.0533 99.1214 31.84C98.7054 31.616 98.38 31.3067 98.1454 30.912C97.9107 30.5067 97.7934 30.0427 97.7934 29.52V23.84H99.0734V29.184C99.0734 29.8027 99.2227 30.2667 99.5214 30.576C99.8307 30.8853 100.268 31.04 100.833 31.04C101.345 31.04 101.799 30.9227 102.193 30.688C102.588 30.4533 102.897 30.128 103.121 29.712C103.356 29.2853 103.473 28.8 103.473 28.256L103.681 30.192C103.415 30.8 102.999 31.28 102.433 31.632C101.868 31.984 101.239 32.16 100.545 32.16ZM103.553 32V30.08H103.473V23.84H104.753V32H103.553ZM107.264 32V23.84H108.544V32H107.264ZM107.168 21.984V20.48H108.64V21.984H107.168ZM113.876 32.16C112.873 32.16 112.073 31.9307 111.476 31.472C110.879 31.0027 110.537 30.3413 110.452 29.488H111.684C111.759 30.0107 111.988 30.4107 112.372 30.688C112.756 30.9653 113.268 31.104 113.908 31.104C114.473 31.104 114.916 30.9973 115.236 30.784C115.556 30.5707 115.716 30.2667 115.716 29.872C115.716 29.5947 115.625 29.3547 115.444 29.152C115.263 28.9387 114.9 28.7627 114.356 28.624L113.044 28.288C112.297 28.096 111.737 27.8027 111.364 27.408C110.991 27.0027 110.804 26.5227 110.804 25.968C110.804 25.264 111.065 24.7093 111.588 24.304C112.111 23.888 112.82 23.68 113.716 23.68C114.601 23.68 115.321 23.8933 115.876 24.32C116.431 24.7467 116.745 25.3387 116.82 26.096H115.588C115.513 25.6587 115.311 25.3227 114.98 25.088C114.649 24.8533 114.212 24.736 113.668 24.736C113.145 24.736 112.74 24.8373 112.452 25.04C112.164 25.232 112.02 25.5093 112.02 25.872C112.02 26.1493 112.121 26.3893 112.324 26.592C112.537 26.7947 112.889 26.9653 113.38 27.104L114.66 27.456C115.417 27.6587 115.988 27.968 116.372 28.384C116.756 28.8 116.948 29.3013 116.948 29.888C116.948 30.6027 116.676 31.1627 116.132 31.568C115.588 31.9627 114.836 32.16 113.876 32.16ZM123.944 32C123.902 31.8187 123.87 31.6107 123.848 31.376C123.838 31.1413 123.832 30.8427 123.832 30.48H123.752V26.576C123.752 25.9573 123.608 25.504 123.32 25.216C123.043 24.9173 122.59 24.768 121.96 24.768C121.342 24.768 120.846 24.896 120.472 25.152C120.11 25.3973 119.907 25.7493 119.864 26.208H118.632C118.686 25.4187 119.016 24.8 119.624 24.352C120.232 23.904 121.027 23.68 122.008 23.68C123.022 23.68 123.774 23.92 124.264 24.4C124.755 24.88 125 25.6 125 26.56V30.48C125 30.7147 125.016 30.96 125.048 31.216C125.08 31.4613 125.123 31.7227 125.176 32H123.944ZM121.144 32.16C120.302 32.16 119.63 31.9573 119.128 31.552C118.638 31.136 118.392 30.5707 118.392 29.856C118.392 29.1413 118.638 28.5867 119.128 28.192C119.619 27.7973 120.334 27.52 121.272 27.36L124.12 26.88V27.936L121.464 28.352C120.867 28.448 120.414 28.608 120.104 28.832C119.795 29.056 119.64 29.3813 119.64 29.808C119.64 30.224 119.779 30.5387 120.056 30.752C120.344 30.9653 120.766 31.072 121.32 31.072C122.035 31.072 122.616 30.912 123.064 30.592C123.523 30.2613 123.752 29.8347 123.752 29.312L123.96 30.448C123.79 30.992 123.454 31.4133 122.952 31.712C122.462 32.0107 121.859 32.16 121.144 32.16ZM130.204 32.16C129.202 32.16 128.402 31.9307 127.804 31.472C127.207 31.0027 126.866 30.3413 126.78 29.488H128.012C128.087 30.0107 128.316 30.4107 128.7 30.688C129.084 30.9653 129.596 31.104 130.236 31.104C130.802 31.104 131.244 30.9973 131.564 30.784C131.884 30.5707 132.044 30.2667 132.044 29.872C132.044 29.5947 131.954 29.3547 131.772 29.152C131.591 28.9387 131.228 28.7627 130.684 28.624L129.372 28.288C128.626 28.096 128.066 27.8027 127.692 27.408C127.319 27.0027 127.132 26.5227 127.132 25.968C127.132 25.264 127.394 24.7093 127.916 24.304C128.439 23.888 129.148 23.68 130.044 23.68C130.93 23.68 131.65 23.8933 132.204 24.32C132.759 24.7467 133.074 25.3387 133.148 26.096H131.916C131.842 25.6587 131.639 25.3227 131.308 25.088C130.978 24.8533 130.54 24.736 129.996 24.736C129.474 24.736 129.068 24.8373 128.78 25.04C128.492 25.232 128.348 25.5093 128.348 25.872C128.348 26.1493 128.45 26.3893 128.652 26.592C128.866 26.7947 129.218 26.9653 129.708 27.104L130.988 27.456C131.746 27.6587 132.316 27.968 132.7 28.384C133.084 28.8 133.276 29.3013 133.276 29.888C133.276 30.6027 133.004 31.1627 132.46 31.568C131.916 31.9627 131.164 32.16 130.204 32.16Z"
        fill="white" />
    <defs>
        <clipPath id="clip0_31_2">
            <rect x="5" y="5" width="42" height="42" rx="21" fill="white" />
        </clipPath>
    </defs>
</svg>